<?xml version="1.0" encoding="UTF-8"?>
<svg xmlns="http://www.w3.org/2000/svg" xmlns:xlink="http://www.w3.org/1999/xlink" width="144pt" height="144pt" viewBox="0 0 144 144" version="1.1">
<g id="surface1">
<path style=" stroke:none;fill-rule:nonzero;fill:rgb(0%,0%,0%);fill-opacity:1;" d="M 142.199219 72 C 142.199219 110.769531 110.769531 142.199219 72 142.199219 C 33.230469 142.199219 1.800781 110.769531 1.800781 72 C 1.800781 33.230469 33.230469 1.800781 72 1.800781 C 110.769531 1.800781 142.199219 33.230469 142.199219 72 Z M 142.199219 72 "/>
<path style=" stroke:none;fill-rule:nonzero;fill:rgb(100%,100%,100%);fill-opacity:1;" d="M 72 140.398438 C 34.222656 140.398438 3.601562 109.777344 3.601562 72 C 3.601562 34.222656 34.222656 3.601562 72 3.601562 C 90.886719 3.601562 106.199219 18.910156 106.199219 37.800781 C 106.199219 56.6875 90.886719 72 72 72 C 53.113281 72 37.800781 87.3125 37.800781 106.199219 C 37.800781 125.089844 53.113281 140.398438 72 140.398438 "/>
<path style=" stroke:none;fill-rule:nonzero;fill:rgb(100%,100%,100%);fill-opacity:1;" d="M 81 106.199219 C 81 111.171875 76.96875 115.199219 72 115.199219 C 67.03125 115.199219 63 111.171875 63 106.199219 C 63 101.230469 67.03125 97.199219 72 97.199219 C 76.96875 97.199219 81 101.230469 81 106.199219 Z M 81 106.199219 "/>
<path style=" stroke:none;fill-rule:nonzero;fill:rgb(0%,0%,0%);fill-opacity:1;" d="M 81 37.800781 C 81 42.769531 76.96875 46.800781 72 46.800781 C 67.03125 46.800781 63 42.769531 63 37.800781 C 63 32.828125 67.03125 28.800781 72 28.800781 C 76.96875 28.800781 81 32.828125 81 37.800781 Z M 81 37.800781 "/>
</g>
</svg>
